@<?xml version="1.0" encoding="UTF-8" standalone="no"?>
<svg
   id="Layer_1"
   data-name="Layer 1"
   viewBox="0 0 358.30006 158.17999"
   version="1.1"
   sodipodi:docname="2019_Etherisc_Logo black blue transparent.svg"
   width="358.30005"
   height="158.17999"
   inkscape:export-filename="/home/christoph/Insync/christoph@etherisc.com/Google Drive/20 Etherisc Group Products &amp; Markets/20 Marketing/30 Corporate Identity/02 Assets/Logo/2019_Etherisc_Logo Text white blue transparent.png"
   inkscape:export-xdpi="600.2276"
   inkscape:export-ydpi="600.2276"
   inkscape:version="1.1.2 (0a00cf5339, 2022-02-04)"
   xmlns:inkscape="http://www.inkscape.org/namespaces/inkscape"
   xmlns:sodipodi="http://sodipodi.sourceforge.net/DTD/sodipodi-0.dtd"
   xmlns="http://www.w3.org/2000/svg"
   xmlns:svg="http://www.w3.org/2000/svg"
   xmlns:rdf="http://www.w3.org/1999/02/22-rdf-syntax-ns#"
   xmlns:cc="http://creativecommons.org/ns#"
   xmlns:dc="http://purl.org/dc/elements/1.1/">
  <metadata
     id="metadata975">
    <rdf:RDF>
      <cc:Work
         rdf:about="">
        <dc:format>image/svg+xml</dc:format>
        <dc:type
           rdf:resource="http://purl.org/dc/dcmitype/StillImage" />
        <dc:title>old_logo_vr.2</dc:title>
      </cc:Work>
    </rdf:RDF>
  </metadata>
  <sodipodi:namedview
     pagecolor="#ffffff"
     bordercolor="#666666"
     borderopacity="1"
     objecttolerance="10"
     gridtolerance="10"
     guidetolerance="10"
     inkscape:pageopacity="0"
     inkscape:pageshadow="2"
     inkscape:window-width="3840"
     inkscape:window-height="2063"
     id="namedview973"
     showgrid="false"
     fit-margin-top="50"
     fit-margin-left="50"
     fit-margin-right="50"
     fit-margin-bottom="50"
     inkscape:pagecheckerboard="true"
     inkscape:zoom="2.8470425"
     inkscape:cx="99.928259"
     inkscape:cy="64.979711"
     inkscape:window-x="0"
     inkscape:window-y="0"
     inkscape:window-maximized="1"
     inkscape:current-layer="Layer_1" />
  <defs
     id="defs950">
    <style
       id="style948">.cls-1{fill:#5081f4;}</style>
  </defs>
  <title
     id="title952">old_logo_vr.2</title>
  <polygon
     points="93.86,24.81 93.86,27.61 85.06,27.61 85.06,40.06 95.16,40.06 95.16,43.16 81.96,43.16 81.96,9.56 95.16,9.56 95.16,12.36 85.06,12.36 85.06,24.81 "
     id="polygon954"
     transform="translate(50,50)"
     style="fill:#000000;fill-opacity:1" />
  <polygon
     points="112.35,12.36 112.35,43.16 109.25,43.16 109.25,12.36 103.35,12.36 103.35,9.56 118.25,9.56 118.25,12.36 "
     id="polygon956"
     transform="translate(50,50)"
     style="fill:#000000;fill-opacity:1" />
  <polygon
     points="130.6,9.56 130.6,24.81 138.9,24.81 138.9,9.56 142,9.56 142,43.16 138.9,43.16 138.9,27.31 130.6,27.31 130.6,43.16 127.5,43.16 127.5,9.56 "
     id="polygon958"
     transform="translate(50,50)"
     style="fill:#000000;fill-opacity:1" />
  <polygon
     points="165.7,24.81 165.7,27.61 156.9,27.61 156.9,40.06 167,40.06 167,43.16 153.8,43.16 153.8,9.56 167,9.56 167,12.36 156.9,12.36 156.9,24.81 "
     id="polygon960"
     transform="translate(50,50)"
     style="fill:#000000;fill-opacity:1" />
  <path
     d="m 239.93,93.15 -4.75,-15.2 h -4.78 v 15.2 h -3.1 v -33.6 h 7.24 c 5.46,0 8,3 8,9.45 a 12.27,12.27 0 0 1 -0.89,4.95 6.57,6.57 0 0 1 -3,3.08 l -0.74,0.4 5.32,15.72 z m -9.53,-17.7 h 3.9 a 5.93,5.93 0 0 0 2.57,-0.47 3.85,3.85 0 0 0 1.67,-1.44 6,6 0 0 0 0.7,-2.12 18.52,18.52 0 0 0 0.16,-2.52 18.74,18.74 0 0 0 -0.16,-2.52 5.89,5.89 0 0 0 -0.73,-2.14 c -0.86,-1.27 -2.35,-1.89 -4.46,-1.89 h -3.65 z"
     id="path962"
     inkscape:connector-curvature="0"
     style="fill:#000000;fill-opacity:1" />
  <rect
     x="253.75"
     y="59.560001"
     width="3.0999999"
     height="33.599998"
     id="rect964"
     style="fill:#000000;fill-opacity:1" />
  <path
     d="m 275.54,93.45 a 8.23,8.23 0 0 1 -3.08,-0.57 7.31,7.31 0 0 1 -2.41,-1.58 7.84,7.84 0 0 1 -1.62,-2.38 7.15,7.15 0 0 1 -0.59,-2.92 v -0.9 h 3.1 v 0.63 a 5.14,5.14 0 0 0 1,3.12 4.14,4.14 0 0 0 3.6,1.5 5.44,5.44 0 0 0 2.48,-0.48 3.76,3.76 0 0 0 1.52,-1.47 4.91,4.91 0 0 0 0.6,-2.09 c 0,-0.67 0.08,-1.43 0.08,-2.26 a 22.75,22.75 0 0 0 -0.11,-2.41 4.85,4.85 0 0 0 -0.57,-1.81 3.76,3.76 0 0 0 -1.29,-1.28 13.3,13.3 0 0 0 -1.61,-0.82 l -3.66,-1.5 a 7.17,7.17 0 0 1 -3.91,-3.1 11.34,11.34 0 0 1 -1,-5.13 12.09,12.09 0 0 1 0.5,-3.5 7.78,7.78 0 0 1 1.44,-2.77 6.72,6.72 0 0 1 2.34,-1.82 8,8 0 0 1 3.45,-0.68 7.48,7.48 0 0 1 3.07,0.62 8,8 0 0 1 2.42,1.64 6.69,6.69 0 0 1 2,4.79 v 1.5 h -3.1 v -0.15 a 6.45,6.45 0 0 0 -1,-3.57 4,4 0 0 0 -3.61,-1.73 4.26,4.26 0 0 0 -2.23,0.55 4.3,4.3 0 0 0 -1.35,1.3 5.47,5.47 0 0 0 -0.71,1.85 10.59,10.59 0 0 0 -0.16,1.9 c 0,0.73 0,1.36 0.08,1.86 a 4.26,4.26 0 0 0 0.49,1.62 3.74,3.74 0 0 0 1.18,1.3 9.13,9.13 0 0 0 1.78,0.9 l 3.9,1.55 a 9.08,9.08 0 0 1 2.48,1.37 5.61,5.61 0 0 1 1.4,1.72 8.56,8.56 0 0 1 0.65,2.39 27.53,27.53 0 0 1 0.19,3.34 16.9,16.9 0 0 1 -0.43,3.95 7.67,7.67 0 0 1 -1.28,2.91 6.2,6.2 0 0 1 -2.35,1.89 8.7,8.7 0 0 1 -3.68,0.72 z"
     id="path966"
     inkscape:connector-curvature="0"
     style="fill:#000000;fill-opacity:1" />
  <path
     d="m 301.2,93.45 a 10.67,10.67 0 0 1 -2.7,-0.36 6,6 0 0 1 -2.31,-1.2 6.8,6.8 0 0 1 -1.72,-2.25 8.15,8.15 0 0 1 -0.67,-3.59 v -19.6 a 7.48,7.48 0 0 1 0.53,-2.87 6.59,6.59 0 0 1 1.47,-2.27 7.18,7.18 0 0 1 2.3,-1.51 8,8 0 0 1 3,-0.55 6.68,6.68 0 0 1 5.12,2.05 7.39,7.39 0 0 1 1.52,2.43 8.15,8.15 0 0 1 0.56,3 v 1 h -3.1 v -0.7 a 5.14,5.14 0 0 0 -1.06,-3.21 3.79,3.79 0 0 0 -3.09,-1.49 3.49,3.49 0 0 0 -3.41,1.71 7.29,7.29 0 0 0 -0.74,3.44 v 18.25 a 5.78,5.78 0 0 0 0.83,3.15 3.6,3.6 0 0 0 3.27,1.5 4.79,4.79 0 0 0 1.36,-0.21 4.36,4.36 0 0 0 1.41,-0.75 4.14,4.14 0 0 0 1.05,-1.49 5.51,5.51 0 0 0 0.38,-2.15 v -0.75 h 3.1 v 1.2 a 7,7 0 0 1 -0.55,2.74 7.55,7.55 0 0 1 -1.53,2.32 7.45,7.45 0 0 1 -2.26,1.61 6.57,6.57 0 0 1 -2.76,0.55 z"
     id="path968"
     inkscape:connector-curvature="0"
     style="fill:#000000;fill-opacity:1" />
  <path
     class="cls-1"
     d="m 116.33,69.73 v 0 l -0.21,-0.19 v 0 l -1,-0.91 v 0 l -2.61,-2.33 v 0 l -2.22,-2 v 0 l -0.37,-0.34 -1.43,0.25 -13.72,2.25 -7.85,-10.8 A 1.49,1.49 0 0 0 86.09,55.14 L 58.18,50.58 54.61,50 l 1.93,2.52 v 0 l 1.38,1.81 H 50 l 3.65,3.4 v 0 l 21.89,20.54 -4.7,22.38 -1.58,7.53 0.28,-0.45 5,-7.89 v 0 l 6.65,-10.49 20.16,-9.87 a 3.32,3.32 0 0 0 1.7,-1.47 l 3.79,-6.12 h 11.92 z M 56.39,56.83 h 3.44 l 7.25,10 z m 4,-3.34 23.73,3.85 -7.48,18.17 z m 13.94,42.24 2.87,-13.24 1.93,5.54 z m 6.83,-9.17 -2.5,-7.33 h 17.7 z M 78.8,76.73 86.18,58.91 99.09,76.73 Z m 22.74,-0.95 -5.09,-7 10.5,-1.81 z m 6.87,-6.41 1.35,-2.19 2.46,2.19 z"
     id="path970"
     inkscape:connector-curvature="0"
     style="fill:#5081f4;fill-opacity:1" />
</svg>
